<?xml version="1.0" encoding="UTF-8"?>
<svg width="97px" height="118px" viewBox="0 0 97 118" version="1.1" xmlns="http://www.w3.org/2000/svg" xmlns:xlink="http://www.w3.org/1999/xlink">
    <!-- Generator: Sketch 46.2 (44496) - http://www.bohemiancoding.com/sketch -->
    <title>noun_Screwdrivers_1631641</title>
    <desc>Created with Sketch.</desc>
    <defs></defs>
    <g id="Page-1" stroke="none" stroke-width="1" fill="none" fill-rule="evenodd">
        <g id="Desktop-Copy" transform="translate(-647.000000, -121.000000)" fill-rule="nonzero" fill="#FFFFFF">
            <g id="noun_Screwdrivers_1631641" transform="translate(647.000000, 121.000000)">
                <g id="Group">
                    <path d="M30.4,2.45833333 C30.8923077,2.45833333 31.2615385,2.58125 31.7538462,2.95 C32,3.31875 32.2461538,3.6875 32.1230769,4.17916667 L27.3230769,35.6458333 C27.0769231,37.6125 26.0923077,39.3333333 24.4923077,40.5625 L20.8,43.3895833 L20.8,76.9458333 L21.6615385,76.9458333 C22.5230769,76.9458333 23.1384615,77.5604167 23.1384615,78.4208333 L23.1384615,112.345833 C23.1384615,115.295833 20.6769231,117.754167 17.7230769,117.754167 L13.2923077,117.754167 C10.3384615,117.754167 7.87692308,115.295833 7.87692308,112.345833 L7.87692308,78.4208333 C7.87692308,77.5604167 8.49230769,76.9458333 9.35384615,76.9458333 L11.2,76.9458333 L11.2,43.88125 L7.38461538,40.5625 C6.03076923,39.3333333 5.04615385,37.7354167 4.8,35.8916667 L0,4.17916667 C0,3.6875 0.123076923,3.31875 0.369230769,2.95 C0.615384615,2.70416667 0.984615385,2.45833333 1.47692308,2.45833333 L30.4,2.45833333 Z M14.1538462,76.8229167 L14.1538462,45.9708333 C14.6461538,46.09375 15.0153846,46.2166667 15.5076923,46.2166667 C16.2461538,46.2166667 16.8615385,46.09375 17.6,45.725 L17.6,76.9458333 L14.1538462,76.9458333 L14.1538462,76.8229167 Z M24.1230769,35.1541667 C24,36.3833333 23.3846154,37.3666667 22.4,38.1041667 C22.4,38.1041667 22.4,38.1041667 22.4,38.1041667 L16.2461538,42.8979167 C15.7538462,43.2666667 15.1384615,43.2666667 14.6461538,42.8979167 L9.23076923,38.2270833 C8.36923077,37.4895833 7.87692308,36.50625 7.75384615,35.4 L3.32307692,5.40833333 L28.6769231,5.40833333 L24.1230769,35.1541667 Z" id="Shape"></path>
                    <path d="M59.3230769,59 L55.5076923,59 L55.5076923,20.8958333 L58.4615385,13.275 C58.5846154,13.0291667 58.5846154,12.6604167 58.4615385,12.2916667 L55.5076923,1.22916667 C55.3846154,0.7375 54.7692308,0.245833333 54.1538462,0.245833333 L48,0.245833333 C47.2615385,0.245833333 46.6461538,0.7375 46.5230769,1.35208333 L43.6923077,12.4145833 C43.5692308,12.6604167 43.6923077,13.0291667 43.6923077,13.275 L46.6461538,20.8958333 L46.6461538,59 L42.8307692,59 C41.9692308,59 41.3538462,59.6145833 41.3538462,60.475 L41.3538462,112.222917 C41.3538462,115.172917 43.8153846,117.63125 46.7692308,117.63125 L55.5076923,117.63125 C58.4615385,117.63125 60.9230769,115.172917 60.9230769,112.222917 L60.9230769,60.5979167 C60.9230769,59.7375 60.1846154,59 59.3230769,59 Z M49.4769231,20.1583333 L46.6461538,12.6604167 L49.1076923,3.19583333 L52.9230769,3.19583333 L55.5076923,12.6604167 L52.6769231,20.0354167 C52.5538462,20.1583333 52.5538462,20.4041667 52.5538462,20.5270833 L52.5538462,59 L49.6,59 L49.6,20.7729167 C49.6,20.5270833 49.6,20.4041667 49.4769231,20.1583333 Z M48.1230769,62.0729167 L54.0307692,62.0729167 L57.8461538,62.0729167 L57.8461538,70.9229167 L44.3076923,70.9229167 L44.3076923,62.0729167 L48.1230769,62.0729167 Z M55.5076923,114.68125 L46.7692308,114.68125 C45.4153846,114.68125 44.4307692,113.575 44.4307692,112.345833 L44.4307692,73.9958333 L57.9692308,73.9958333 L57.9692308,112.345833 C57.8461538,113.697917 56.7384615,114.68125 55.5076923,114.68125 Z" id="Shape"></path>
                    <path d="M95.5230769,59 L91.7076923,59 L91.7076923,20.8958333 L95.6461538,4.05625 C95.7692308,3.56458333 95.6461538,3.19583333 95.4,2.82708333 C95.1538462,2.45833333 94.6615385,2.2125 94.1692308,2.2125 L79.2769231,2.2125 C78.7846154,2.2125 78.4153846,2.45833333 78.0461538,2.82708333 C77.8,3.19583333 77.6769231,3.6875 77.8,4.17916667 L82.7230769,21.01875 L82.7230769,59.1229167 L78.9076923,59.1229167 C78.0461538,59.1229167 77.4307692,59.7375 77.4307692,60.5979167 L77.4307692,112.345833 C77.4307692,115.295833 79.8923077,117.754167 82.8461538,117.754167 L91.5846154,117.754167 C94.5384615,117.754167 97,115.295833 97,112.345833 L97,60.5979167 C97,59.7375 96.2615385,59 95.5230769,59 Z M93.9230769,112.345833 C93.9230769,113.697917 92.8153846,114.68125 91.5846154,114.68125 L88.7538462,114.68125 L88.7538462,62.0729167 L90.2307692,62.0729167 L94.0461538,62.0729167 L94.0461538,112.345833 L93.9230769,112.345833 Z" id="Shape"></path>
                </g>
            </g>
        </g>
    </g>
</svg>