<?xml version="1.0" encoding="UTF-8"?>
<svg width="174px" height="174px" viewBox="0 0 174 174" version="1.1" xmlns="http://www.w3.org/2000/svg" xmlns:xlink="http://www.w3.org/1999/xlink">
    <!-- Generator: Sketch 46.2 (44496) - http://www.bohemiancoding.com/sketch -->
    <title>slack</title>
    <desc>Created with Sketch.</desc>
    <defs></defs>
    <g id="Page-1" stroke="none" stroke-width="1" fill="none" fill-rule="evenodd">
        <g id="Desktop-Copy" transform="translate(-63.000000, -806.000000)" fill-rule="nonzero" fill="#FFFFFF">
            <g id="operator_logo_sdk_color" transform="translate(63.000000, 724.000000)">
                <g id="slack" transform="translate(0.000000, 82.000000)">
                    <rect id="Rectangle-path" transform="translate(86.500000, 86.500000) rotate(-18.518296) translate(-86.500000, -86.500000) " x="74" y="75" width="25" height="23"></rect>
                    <g id="Group">
                        <rect id="Rectangle-path" transform="translate(86.914222, 87.216222) rotate(-18.518296) translate(-86.914222, -87.216222) " x="74.6922872" y="75.4109441" width="24.44387" height="23.6105562"></rect>
                        <path d="M166.5,63.1944444 C148.583333,3.47222222 122.75,-10.4166667 63.0277778,7.5 C3.30555556,25.4166667 -10.5833333,51.25 7.33333333,110.972222 C25.25,170.694444 51.0833333,184.583333 110.805556,166.666667 C170.527778,148.75 184.416667,122.916667 166.5,63.1944444 Z M136.361111,101.944444 L125.111111,105.694444 L129,117.361111 C130.527778,122.083333 128.027778,127.222222 123.305556,128.75 C122.333333,129.027778 121.222222,129.305556 120.25,129.166667 C116.638889,129.027778 113.166667,126.666667 111.916667,123.055556 L108.027778,111.388889 L84.8333333,119.166667 L88.7222222,130.833333 C90.25,135.555556 87.75,140.694444 83.0277778,142.222222 C82.0555556,142.5 80.9444444,142.777778 79.9722222,142.638889 C76.3611111,142.5 72.8888889,140.138889 71.6388889,136.527778 L67.75,124.861111 L56.5,128.611111 C55.5277778,128.888889 54.4166667,129.166667 53.4444444,129.027778 C49.8333333,128.888889 46.3611111,126.527778 45.1111111,122.916667 C43.5833333,118.194444 46.0833333,113.055556 50.8055556,111.527778 L62.0555556,107.777778 L54.5555556,85.4166667 L43.3055556,89.1666667 C42.3333333,89.4444444 41.2222222,89.7222222 40.25,89.5833333 C36.6388889,89.4444444 33.1666667,87.0833333 31.9166667,83.4722222 C30.3888889,78.75 32.8888889,73.6111111 37.6111111,72.0833333 L48.8611111,68.3333333 L44.9722222,56.6666667 C43.4444444,51.9444444 45.9444444,46.8055556 50.6666667,45.2777778 C55.3888889,43.75 60.5277778,46.25 62.0555556,50.9722222 L65.9444444,62.6388889 L89.1388889,54.8611111 L85.25,43.1944444 C83.7222222,38.4722222 86.2222222,33.3333333 90.9444444,31.8055556 C95.6666667,30.2777778 100.805556,32.7777778 102.333333,37.5 L106.222222,49.1666667 L117.472222,45.4166667 C122.194444,43.8888889 127.333333,46.3888889 128.861111,51.1111111 C130.388889,55.8333333 127.888889,60.9722222 123.166667,62.5 L111.916667,66.25 L119.416667,88.6111111 L130.666667,84.8611111 C135.388889,83.3333333 140.527778,85.8333333 142.055556,90.5555556 C143.583333,95.2777778 141.083333,100.416667 136.361111,101.944444 Z" id="Shape"></path>
                    </g>
                </g>
            </g>
        </g>
    </g>
</svg>