<?xml version="1.0" encoding="UTF-8"?>
<svg width="89px" height="89px" viewBox="0 0 89 89" version="1.1" xmlns="http://www.w3.org/2000/svg" xmlns:xlink="http://www.w3.org/1999/xlink">
    <!-- Generator: Sketch 46.2 (44496) - http://www.bohemiancoding.com/sketch -->
    <title>Page-1</title>
    <desc>Created with Sketch.</desc>
    <defs></defs>
    <g id="Page-1" stroke="none" stroke-width="1" fill="none" fill-rule="evenodd">
        <g id="Desktop-Copy" transform="translate(-247.000000, -722.000000)" fill-rule="nonzero">
            <g id="operator_logo_sdk_color" transform="translate(249.000000, 724.000000)">
                <g id="Page-1">
                    <path d="M42.8,0 C66.2721019,3.55271368e-15 85.3,19.0278981 85.3,42.5 C85.3,65.9721019 66.2721019,85 42.8,85 C19.3278981,85 0.3,65.9721019 0.3,42.5 C0.305520361,19.0301851 19.3301851,0.00552036125 42.8,0" id="Fill-1" stroke="#FFFFFF" stroke-width="3"></path>
                    <path d="M17.83,49 L52.38,5 C53.15,6.52 52.38,7.38 52.08,8.29 C48.94,16.9 45.85,25.57 42.56,34.13 C41.75,36.3 42.1,36.81 44.38,36.81 L66.62,36.81 C67.22,36.81 68.03,36.51 68.39,37.17 C68.75,37.83 67.98,38.33 67.63,38.84 L39.31,76.33 C38.86,76.94 38.41,77.85 37.59,77.4 C36.77,76.95 37.29,76.03 37.59,75.27 C39.77,67.27 41.85,59.36 44.12,51.41 C44.69,49.54 44.12,49.13 42.41,49.18 L21.28,49.18 L17.83,49 Z" id="Fill-5" fill="#FFFFFF"></path>
                </g>
            </g>
        </g>
    </g>
</svg>