<?xml version="1.0" encoding="UTF-8"?>
<svg width="267px" height="237px" viewBox="0 0 267 237" version="1.1" xmlns="http://www.w3.org/2000/svg" xmlns:xlink="http://www.w3.org/1999/xlink">
    <!-- Generator: Sketch 46.2 (44496) - http://www.bohemiancoding.com/sketch -->
    <title>sentry</title>
    <desc>Created with Sketch.</desc>
    <defs></defs>
    <g id="Page-1" stroke="none" stroke-width="1" fill="none" fill-rule="evenodd">
        <g id="Desktop-Copy" transform="translate(-343.000000, -358.000000)" fill-rule="nonzero" fill="#FFFFFF">
            <g id="sentry" transform="translate(343.000000, 358.000000)">
                <path d="M154.878512,12.2818519 C150.470134,4.68132851 142.328378,0 133.517943,0 C124.707507,0 116.565751,4.68132851 112.157373,12.2818519 L76.9900341,72.975417 L85.9612939,78.1062132 C136.048575,106.969845 168.275832,158.931545 171.780366,216.476815 L147.091459,216.476815 C143.620688,167.6719 116.055974,123.768768 73.5271278,99.3087369 L64.5558679,94.1958181 L31.7928268,150.956369 L40.7640867,156.087165 C62.7941523,168.980512 77.6534575,191.247826 81.0629861,216.476815 L24.6696465,216.476815 C23.2008226,216.500798 21.8328465,215.734833 21.0896477,214.472283 C20.346449,213.209732 20.343199,211.64625 21.0811426,210.380643 L36.7987899,183.26072 C31.4896538,178.800778 25.4095844,175.34167 18.8562701,173.052759 L3.3001055,200.11905 C-1.10269068,207.724586 -1.09985576,217.092463 3.30754281,224.695352 C7.71494138,232.298241 15.8576455,236.981654 24.6696465,236.982123 L102.271044,236.982123 L102.271044,226.738408 C102.281386,193.878219 86.4311184,163.01795 59.6755025,143.805433 L72.0199561,122.495645 C106.32866,146.157993 126.816457,185.074318 126.852296,226.649021 L126.852296,236.910613 L192.611631,236.910613 L192.611631,226.666898 C192.551188,161.705956 159.594456,101.161883 104.980365,65.6814627 L129.93841,22.5434443 C130.666383,21.2893769 132.010114,20.5170816 133.464115,20.5170816 C134.918116,20.5170816 136.261847,21.2893769 136.98982,22.5434443 L245.829145,210.380643 C246.567088,211.64625 246.563838,213.209732 245.82064,214.472283 C245.077441,215.734833 243.709465,216.500798 242.240641,216.476815 L216.780205,216.476815 C217.103171,223.323836 217.139056,230.170857 216.780205,237 L242.330353,237 C251.142355,236.999531 259.285059,232.316119 263.692457,224.71323 C268.099856,217.11034 268.102691,207.742464 263.699895,200.136927 L154.878512,12.2818519 Z" id="Shape"></path>
            </g>
        </g>
    </g>
</svg>