<?xml version="1.0" encoding="UTF-8"?>
<svg width="139px" height="116px" viewBox="0 0 139 116" version="1.1" xmlns="http://www.w3.org/2000/svg" xmlns:xlink="http://www.w3.org/1999/xlink">
    <!-- Generator: Sketch 46.2 (44496) - http://www.bohemiancoding.com/sketch -->
    <title>noun_training_1196673</title>
    <desc>Created with Sketch.</desc>
    <defs></defs>
    <g id="Page-1" stroke="none" stroke-width="1" fill="none" fill-rule="evenodd">
        <g id="Desktop-Copy" transform="translate(-454.000000, -121.000000)" fill-rule="nonzero" fill="#FFFFFF">
            <g id="noun_training_1196673" transform="translate(454.000000, 121.000000)">
                <g id="Group">
                    <ellipse id="Oval" cx="120.446814" cy="48.1856552" rx="11.5625714" ry="11.5151724"></ellipse>
                    <path d="M101.411471,103.187897 C93.3238,103.187897 86.4679714,108.357517 83.9389143,115.553483 L118.881986,115.553483 C116.359057,108.357517 109.499143,103.187897 101.411471,103.187897 Z" id="Shape"></path>
                    <ellipse id="Oval" cx="101.411471" cy="88.7918966" rx="11.5625714" ry="11.5151724"></ellipse>
                    <path d="M62.4337571,103.187897 C54.3460857,103.187897 47.4902571,108.357517 44.9591571,115.553483 L79.9042714,115.553483 C77.3793,108.357517 70.5214286,103.187897 62.4337571,103.187897 Z" id="Shape"></path>
                    <ellipse id="Oval" cx="62.4337571" cy="88.7918966" rx="11.5625714" ry="11.5151724"></ellipse>
                    <ellipse id="Oval" cx="23.4519571" cy="88.793931" rx="11.5625714" ry="11.5151724"></ellipse>
                    <path d="M23.4560429,103.187897 C15.3663286,103.187897 8.5105,108.357517 5.98144286,115.553483 L40.9245143,115.553483 C38.3995429,108.357517 31.5437143,103.187897 23.4560429,103.187897 Z" id="Shape"></path>
                    <path d="M120.4509,62.5775862 C112.359143,62.5775862 105.4931,67.7553448 102.970171,74.9594483 C109.776971,75.1181379 115.255914,80.5461379 115.470414,87.3087586 L138.977571,87.3087586 L138.977571,81.0283103 C138.977571,70.8396207 130.681529,62.5775862 120.4509,62.5775862 Z" id="Shape"></path>
                    <polygon id="Shape" points="8.25105714 87.3433448 6.00595714 87.3433448 6.00595714 6.40551724 121.433514 6.40551724 121.433514 33.2179655 127.415 33.2179655 127.415 0.446517241 0.0224285714 0.446517241 0.0224285714 93.3023448 8.25105714 93.3023448"></polygon>
                    <rect id="Rectangle-path" x="37.2616714" y="87.3087586" width="11.3644143" height="5.99155172"></rect>
                    <rect id="Rectangle-path" x="76.2434714" y="87.3087586" width="11.3644143" height="5.99155172"></rect>
                    <rect id="Rectangle-path" x="19.0026143" y="45.319069" width="10.2142857" height="11.8671379"></rect>
                    <rect id="Rectangle-path" x="35.3454714" y="36.6704828" width="10.2142857" height="20.5136897"></rect>
                    <rect id="Rectangle-path" x="51.6883286" y="49.7888276" width="10.2142857" height="7.39534483"></rect>
                    <rect id="Rectangle-path" x="68.0311857" y="16.1567931" width="10.2142857" height="41.0294138"></rect>
                </g>
                <rect id="Rectangle-path" x="19" y="60" width="8" height="3"></rect>
                <rect id="Rectangle-path" x="29" y="60" width="8" height="3"></rect>
                <rect id="Rectangle-path" x="40" y="60" width="8" height="3"></rect>
                <rect id="Rectangle-path" x="50" y="60" width="8" height="3"></rect>
                <rect id="Rectangle-path" x="60" y="60" width="8" height="3"></rect>
                <rect id="Rectangle-path" x="71" y="60" width="8" height="3"></rect>
            </g>
        </g>
    </g>
</svg>