<?xml version="1.0" encoding="UTF-8"?>
<svg width="264px" height="264px" viewBox="0 0 264 264" version="1.1" xmlns="http://www.w3.org/2000/svg" xmlns:xlink="http://www.w3.org/1999/xlink">
    <!-- Generator: Sketch 46.2 (44496) - http://www.bohemiancoding.com/sketch -->
    <title>user</title>
    <desc>Created with Sketch.</desc>
    <defs></defs>
    <g id="Page-1" stroke="none" stroke-width="1" fill="none" fill-rule="evenodd">
        <g id="Desktop-Copy" transform="translate(-576.000000, -699.000000)" fill-rule="nonzero" fill="#FFFFFF">
            <g id="user" transform="translate(576.000000, 699.000000)">
                <path d="M218.076433,150 L190.522293,150 C186.585987,150 183.961783,147.357143 183.961783,143.392857 C183.961783,139.428571 186.585987,136.785714 190.522293,136.785714 L218.076433,136.785714 C224.636943,136.785714 231.197452,135.464286 237.757962,134.142857 C241.694268,132.821429 244.318471,131.5 246.942675,130.178571 C249.566879,128.857143 250.878981,124.892857 250.878981,122.25 C250.878981,119.607143 249.566879,116.964286 248.254777,114.321429 C241.694268,106.392857 229.88535,101.107143 214.140127,95.8214286 C212.828025,95.8214286 212.828025,94.5 211.515924,94.5 C207.579618,91.8571429 204.955414,87.8928571 203.643312,83.9285714 C203.643312,78.6428571 206.267516,74.6785714 210.203822,72.0357143 C219.388535,58.8214286 224.636943,46.9285714 223.324841,36.3571429 C222.012739,29.75 219.388535,24.4642857 214.140127,20.5 C204.955414,13.8928571 191.834395,13.8928571 183.961783,20.5 C178.713376,24.4642857 176.089172,29.75 174.77707,36.3571429 C173.464968,46.9285714 178.713376,58.8214286 187.898089,72.0357143 C190.522293,74.6785714 189.210191,78.6428571 186.585987,81.2857143 C183.961783,83.9285714 180.025478,82.6071429 177.401274,79.9642857 C164.280255,64.1071429 159.031847,48.25 161.656051,33.7142857 C162.968153,24.4642857 168.216561,15.2142857 176.089172,9.92857143 C189.210191,-0.642857143 208.89172,-0.642857143 222.012739,9.92857143 C229.88535,16.5357143 235.133758,24.4642857 236.44586,33.7142857 C237.757962,48.25 232.509554,64.1071429 220.700637,79.9642857 C219.388535,81.2857143 219.388535,82.6071429 218.076433,82.6071429 C218.076433,82.6071429 219.388535,82.6071429 219.388535,83.9285714 C236.44586,89.2142857 249.566879,97.1428571 257.43949,106.392857 C261.375796,110.357143 264,116.964286 264,123.571429 C264,131.5 260.063694,138.107143 254.815287,142.071429 C250.878981,144.714286 246.942675,147.357143 241.694268,148.678571 C233.821656,148.678571 225.949045,150 218.076433,150 Z" id="Shape"></path>
                <path d="M74.2893241,149 L46.4308275,149 C37.144662,149 29.1850916,147.681416 22.5521162,145.044248 C17.2457359,143.725664 13.2659507,141.088496 9.28616551,138.451327 C3.97978522,134.495575 0,126.584071 0,119.99115 C0,113.39823 2.65319015,108.123894 6.63297536,102.849558 C15.9191409,93.619469 29.1850916,87.0265487 46.4308275,81.7522124 C46.4308275,81.7522124 47.7574226,81.7522124 47.7574226,80.4336283 C47.7574226,80.4336283 46.4308275,79.1150442 46.4308275,77.7964602 C33.1648768,61.9734513 26.5319015,44.8318584 29.1850916,31.6460177 C30.5116867,22.4159292 35.818067,13.1858407 43.7776374,7.91150442 C57.0435881,-2.63716814 76.9425142,-2.63716814 90.2084649,7.91150442 C98.1680354,14.5044248 103.474416,22.4159292 104.801011,31.6460177 C106.127606,46.1504425 100.821226,61.9734513 88.8818699,77.7964602 C86.2286797,80.4336283 82.2488945,80.4336283 79.5957044,79.1150442 C76.9425142,76.4778761 75.6159191,72.5221239 78.2691093,69.8849558 C88.8818699,56.699115 92.8616551,43.5132743 91.53506,34.2831858 C91.53506,27.6902655 87.5552748,22.4159292 82.2488945,18.460177 C72.962729,11.8672566 61.0233733,11.8672566 51.7372078,18.460177 C46.4308275,22.4159292 42.4510423,27.6902655 42.4510423,32.9646018 C41.1244473,43.5132743 46.4308275,55.380531 55.7169931,68.5663717 C58.3701832,72.5221239 62.3499684,76.4778761 61.0233733,80.4336283 C61.0233733,85.7079646 57.0435881,88.3451327 53.0638029,90.9823009 C53.0638029,90.9823009 51.7372078,92.300885 50.4106128,92.300885 C35.818067,98.8938053 25.2053064,104.168142 17.2457359,112.079646 C15.9191409,114.716814 14.5925458,117.353982 14.5925458,119.99115 C14.5925458,123.946903 15.9191409,126.584071 18.572331,127.902655 C21.2255212,129.221239 23.8787113,130.539823 27.8584965,131.858407 C33.1648768,134.495575 39.7978522,135.814159 46.4308275,135.814159 L74.2893241,135.814159 C78.2691093,135.814159 80.9222994,138.451327 80.9222994,142.40708 C80.9222994,146.362832 78.2691093,149 74.2893241,149 Z" id="Shape"></path>
                <path d="M159.123077,264 L105.192308,264 C93.3538462,264 82.8307692,262.686971 73.6230769,258.747885 C67.0461538,256.121827 61.7846154,253.49577 57.8384615,249.556684 C49.9461538,245.617597 46,236.426396 46,227.235195 C46,219.357022 48.6307692,212.791878 53.8923077,206.226734 C64.4153846,194.409475 81.5153846,185.218274 105.192308,177.340102 C106.507692,176.027073 107.823077,174.714044 109.138462,173.401015 C109.138462,173.401015 107.823077,172.087986 105.192308,169.461929 C88.0923077,147.14044 80.2,127.445008 82.8307692,109.062606 C85.4615385,97.2453469 90.7230769,86.7411168 101.246154,78.8629442 C118.346154,67.0456853 144.653846,67.0456853 160.438462,78.8629442 C170.961538,86.7411168 177.538462,97.2453469 178.853846,109.062606 C181.484615,127.445008 173.592308,148.453469 157.807692,169.461929 C153.861538,173.401015 153.861538,174.714044 153.861538,174.714044 C153.861538,174.714044 156.492308,176.027073 157.807692,177.340102 C181.484615,185.218274 198.584615,194.409475 209.107692,206.226734 C214.369231,211.478849 217,219.357022 217,227.235195 C217,236.426396 213.053846,245.617597 206.476923,250.869712 C202.530769,254.808799 197.269231,257.434856 190.692308,260.060914 C180.169231,262.686971 169.646154,264 159.123077,264 Z" id="Shape"></path>
            </g>
        </g>
    </g>
</svg>